<?xml version="1.0" standalone="no"?>
<!DOCTYPE svg>
<svg version="1.0" xmlns="http://www.w3.org/2000/svg"
 width="520.000000pt" height="180.000000pt" viewBox="0 0 520.000000 180.000000"
 preserveAspectRatio="xMidYMid meet">

<g transform="translate(0.000000,180.000000) scale(0.100000,-0.100000)"
fill="#FFF" stroke="none">
<path d="M486 1745 c-362 -100 -541 -543 -364 -900 108 -219 319 -340 562
-322 130 10 233 52 330 138 48 42 126 150 126 173 0 6 -50 23 -110 37 -61 14
-110 22 -110 18 0 -4 -21 -30 -46 -58 -65 -72 -129 -103 -226 -109 -70 -4 -82
-2 -140 25 -104 50 -172 133 -210 257 -17 56 -20 86 -16 167 4 89 9 107 41
173 42 83 93 141 163 182 66 39 184 45 265 15 56 -21 117 -70 155 -125 l21
-29 111 28 112 27 -27 52 c-62 115 -201 219 -334 251 -78 18 -236 18 -303 0z"/>
<path d="M2907 1709 c-37 -28 -54 -88 -37 -129 19 -46 55 -70 107 -70 83 0
134 65 112 145 -20 70 -123 101 -182 54z"/>
<path d="M2213 1438 c-89 -9 -185 -51 -245 -107 -42 -38 -88 -106 -78 -114 3
-2 50 -15 106 -29 l100 -25 16 28 c51 88 272 106 331 27 26 -35 16 -73 -25
-98 -31 -19 -78 -29 -264 -55 -131 -18 -202 -46 -253 -96 -46 -46 -61 -88 -61
-169 0 -142 106 -241 288 -271 115 -19 274 18 321 75 18 21 27 13 35 -29 l7
-35 106 0 c93 0 104 2 99 16 -18 46 -26 173 -26 407 0 297 -4 312 -91 391 -80
72 -204 100 -366 84z m253 -503 c20 -81 -31 -171 -113 -199 -67 -23 -198 -21
-243 3 -69 36 -60 115 15 147 19 8 82 21 140 30 59 8 123 22 143 29 50 18 51
18 58 -10z"/>
<path d="M4642 1438 c-235 -26 -414 -281 -373 -531 57 -352 454 -506 727 -282
167 137 207 424 85 614 -94 146 -257 220 -439 199z m156 -216 c103 -47 158
-203 117 -338 -63 -211 -331 -218 -410 -10 -24 61 -17 184 13 242 24 47 91
111 124 118 53 12 64 13 93 8 17 -2 45 -11 63 -20z"/>
<path d="M1620 1419 c-25 -11 -60 -34 -77 -52 l-33 -31 0 42 0 42 -110 0 -110
0 0 -440 0 -440 115 0 115 0 0 258 c0 146 5 273 10 294 24 84 102 137 203 138
l57 0 0 105 0 105 -62 0 c-42 0 -78 -7 -108 -21z"/>
<path d="M3525 1424 c-257 -91 -375 -393 -255 -652 33 -71 112 -160 176 -197
134 -79 309 -66 442 31 l22 16 0 -241 0 -241 205 0 205 0 0 -49 0 -50 178 100
c97 54 177 103 177 109 0 5 -79 54 -175 108 l-175 99 -3 -49 -3 -48 -90 0 -89
0 0 530 0 530 -110 0 -110 0 0 -40 c0 -22 -2 -40 -5 -40 -3 0 -24 13 -46 30
-92 66 -243 90 -344 54z m264 -217 c117 -78 154 -230 85 -356 -120 -221 -423
-128 -424 129 0 152 106 265 242 257 40 -2 68 -11 97 -30z"/>
<path d="M2870 980 l0 -440 110 0 110 0 0 440 0 440 -110 0 -110 0 0 -440z"/>
</g>
</svg>
