<?xml version="1.0" standalone="no"?>
<!DOCTYPE svg PUBLIC "-//W3C//DTD SVG 20010904//EN"
 "http://www.w3.org/TR/2001/REC-SVG-20010904/DTD/svg10.dtd">
<svg version="1.0" xmlns="http://www.w3.org/2000/svg"
 width="183.000000pt" height="176.000000pt" viewBox="0 0 183.000000 176.000000"
 preserveAspectRatio="xMidYMid meet">

<g transform="translate(0.000000,176.000000) scale(0.100000,-0.100000)"
fill="#000000" stroke="none">
<path d="M411 1735 c-168 -47 -316 -197 -371 -374 -66 -211 -14 -433 138 -593
115 -121 218 -164 376 -156 105 6 184 30 263 83 l53 35 0 -300 0 -300 255 0
255 0 0 -60 c0 -33 3 -60 6 -60 11 0 383 214 411 236 l26 20 -119 71 c-155 91
-300 173 -307 173 -3 0 -9 -25 -12 -55 l-7 -55 -114 0 -114 0 0 660 0 660
-135 0 -135 0 0 -45 c0 -25 -5 -45 -10 -45 -6 0 -34 15 -63 34 -108 72 -283
103 -396 71z m291 -268 c85 -50 139 -127 160 -230 21 -100 -16 -218 -93 -297
-56 -57 -109 -80 -190 -80 -240 -1 -371 290 -230 512 32 50 85 91 148 114 57
21 152 12 205 -19z"/>
</g>
</svg>
