<?xml version="1.0" standalone="no"?>
<!DOCTYPE svg PUBLIC "-//W3C//DTD SVG 20010904//EN"
 "http://www.w3.org/TR/2001/REC-SVG-20010904/DTD/svg10.dtd">
<svg version="1.0" xmlns="http://www.w3.org/2000/svg"
 width="1280.000000pt" height="150.000000pt" viewBox="0 0 1280.000000 150.000000"
 preserveAspectRatio="xMidYMid meet">

<g transform="translate(0.000000,150.000000) scale(0.100000,-0.100000)"
fill="#1E5E96" stroke="none">
<path d="M3570 1460 c0 -5 7 -10 15 -10 8 0 15 5 15 10 0 6 -7 10 -15 10 -8 0
-15 -4 -15 -10z"/>
<path d="M3611 1463 c5 -31 -3 -33 -131 -33 l-130 0 0 -400 c0 -388 -1 -400
-19 -400 -11 0 -26 -3 -35 -6 -14 -5 -16 6 -16 83 l0 89 -32 11 c-18 6 -49 15
-68 18 -19 4 -39 9 -43 12 -10 6 -204 6 -214 0 -5 -3 -26 -8 -48 -12 -22 -4
-52 -11 -67 -17 l-28 -10 -1 -252 c0 -138 -3 -244 -6 -236 -2 8 -7 22 -10 30
-4 8 -5 18 -5 23 1 4 -3 7 -9 7 -7 0 -8 7 -4 17 3 10 8 46 11 81 4 57 2 62
-16 62 -19 0 -20 8 -22 413 l-3 412 -140 0 -140 0 4 -372 4 -373 -37 0 c-32 0
-36 -3 -36 -27 0 -14 -3 -23 -6 -20 -4 4 -6 47 -5 97 2 69 -1 90 -11 90 -7 0
-62 -11 -122 -25 -82 -18 -116 -31 -136 -50 -34 -33 -50 -32 -50 4 0 28 -1 29
-67 36 -38 4 -73 11 -80 17 -13 10 -91 2 -108 -12 -6 -5 -28 -10 -50 -12 -37
-3 -40 -5 -38 -31 1 -18 -2 -27 -10 -24 -7 2 -13 22 -15 44 -3 40 -5 42 -71
77 -73 38 -115 45 -125 21 -3 -8 -15 -15 -26 -15 -17 0 -20 7 -21 48 l-1 47
-12 -35 c-12 -34 -14 -35 -74 -38 l-62 -3 0 -44 c0 -33 -4 -45 -17 -48 -17 -4
-17 -5 0 -6 19 -1 25 -45 7 -56 -5 -3 -10 -14 -10 -24 0 -12 -10 -20 -29 -24
-40 -8 -71 2 -71 23 0 25 -5 25 -116 22 l-96 -3 5 -35 c4 -23 2 -34 -6 -34 -8
0 -7 -3 2 -9 7 -5 10 -14 7 -20 -4 -6 -1 -11 6 -11 9 -1 9 -3 -2 -8 -8 -4 -52
-6 -98 -4 l-82 4 0 53 c0 40 4 56 16 63 36 20 2 28 -95 24 -71 -3 -101 -1
-101 7 0 8 -6 7 -20 -1 -15 -10 -27 -10 -51 -1 -28 11 -32 10 -36 -7 -3 -11
-12 -20 -19 -20 -18 0 -18 -15 1 -34 21 -21 21 -188 0 -206 -12 -10 -18 -10
-29 -1 -8 7 -35 14 -60 17 -41 5 -46 3 -60 -23 -13 -24 -15 -25 -16 -7 0 29
-33 64 -59 64 -11 0 -21 5 -21 10 0 17 -88 12 -97 -5 -5 -8 -32 -21 -61 -27
-28 -7 -55 -19 -59 -28 -4 -8 -9 -102 -11 -207 l-4 -193 6401 0 6401 0 0 75 0
75 -30 0 -30 0 0 90 c0 50 -4 90 -9 90 -5 0 -11 10 -13 23 -5 34 -55 37 -68 3
-11 -29 -30 -35 -30 -10 0 13 -10 15 -54 12 -52 -3 -54 -2 -54 22 1 45 -2 50
-27 50 -14 0 -25 5 -25 10 0 6 -11 10 -25 10 -14 0 -38 13 -55 30 -36 35 -37
40 -7 41 21 1 21 1 -3 10 -14 5 -30 19 -35 32 -6 13 -22 24 -40 27 -29 5 -30
7 -33 63 l-3 58 -132 -3 -132 -3 -3 -47 c-3 -43 -5 -48 -28 -48 -13 0 -24 -4
-24 -9 0 -5 -8 -12 -17 -14 -13 -3 -11 -5 7 -7 l25 -2 -25 -8 c-17 -5 -19 -8
-7 -9 9 -1 17 -5 17 -10 0 -5 -8 -12 -17 -14 -17 -4 -17 -5 0 -6 9 0 17 -5 17
-11 0 -5 -8 -10 -17 -11 -16 0 -16 -1 1 -8 19 -7 19 -8 0 -16 -18 -7 -17 -8 6
-15 l25 -8 -25 -1 c-23 -2 -24 -2 -7 -15 18 -14 18 -14 0 -19 -16 -4 -16 -5 0
-6 9 0 17 -5 17 -10 0 -5 -8 -12 -17 -14 -15 -4 -15 -5 2 -6 17 -1 18 -3 5
-11 -10 -7 -11 -13 -5 -17 6 -5 12 -20 13 -35 2 -27 0 -28 -43 -28 l-45 0 0
-39 0 -38 -60 -7 c-33 -4 -60 -11 -60 -16 0 -6 -16 -10 -35 -10 -33 0 -35 2
-35 34 0 48 -9 66 -33 66 -11 0 -34 17 -52 37 -29 34 -36 37 -84 36 -29 0 -58
-6 -64 -12 -15 -15 -60 -14 -75 1 -9 9 -15 10 -20 2 -4 -7 -16 -14 -27 -16
-11 -2 -19 -10 -17 -16 1 -7 -2 -12 -8 -12 -5 0 -10 3 -10 8 0 4 -22 6 -49 6
-61 -2 -101 5 -101 18 0 5 -7 16 -15 24 -8 8 -19 23 -25 32 -9 13 -12 14 -17
4 -8 -20 -49 -62 -60 -62 -6 0 -29 13 -51 30 -23 17 -50 30 -60 30 -24 0 -76
-26 -92 -45 -16 -19 -77 -19 -96 0 -19 19 -80 20 -87 1 -4 -10 -30 -14 -99
-15 -84 -1 -95 -4 -115 -25 -12 -14 -25 -36 -29 -50 -6 -27 -18 -33 -29 -16
-3 5 -17 10 -30 10 -12 0 -25 7 -29 15 -6 17 -76 21 -76 5 0 -5 -4 -10 -9 -10
-6 0 -11 17 -13 38 -3 34 -6 37 -35 40 -25 2 -33 8 -33 23 0 21 6 20 -181 24
-92 1 -120 5 -133 18 -9 8 -16 20 -16 26 0 6 -16 11 -35 11 -24 0 -35 -5 -35
-14 0 -9 -12 -16 -32 -18 l-33 -3 -3 -87 c-2 -79 -5 -88 -22 -88 -16 0 -19 9
-22 83 -2 45 1 85 5 88 5 3 -5 9 -22 12 -30 6 -31 8 -31 62 0 60 -7 66 -36 34
-14 -16 -29 -20 -64 -18 -63 2 -70 1 -70 -16 0 -8 -4 -15 -10 -15 -5 0 -10
-11 -10 -25 0 -18 -4 -23 -15 -19 -35 14 -45 -14 -45 -131 0 -100 -2 -114 -17
-117 -12 -2 -18 -12 -18 -28 0 -16 -6 -26 -17 -28 -15 -3 -18 4 -18 32 0 20 5
36 10 36 6 0 10 57 10 150 0 143 -1 150 -20 150 -15 0 -20 7 -20 25 0 18 -5
25 -19 25 -14 0 -21 8 -23 27 -2 18 -10 29 -21 31 -27 5 -105 86 -111 113 -3
13 -7 33 -9 44 -3 11 -5 3 -6 -18 -1 -52 -32 -107 -60 -107 -5 0 -15 -8 -20
-17 -9 -16 -10 -15 -11 5 0 12 -7 25 -15 28 -9 4 -15 19 -15 40 0 29 -3 34
-24 34 -21 0 -25 6 -28 33 -3 28 -6 32 -28 29 -14 -1 -35 0 -47 3 -21 5 -23
11 -23 84 0 58 -4 82 -15 91 -8 7 -15 25 -15 41 0 25 -5 29 -37 35 -21 4 -46
11 -55 16 -12 5 -18 5 -18 -2 0 -5 -9 -10 -20 -10 -17 0 -20 -7 -20 -39 0 -22
-6 -44 -15 -51 -11 -9 -15 -33 -15 -91 0 -57 -4 -79 -13 -79 -7 0 -12 -14 -13
-35 0 -19 4 -35 9 -35 5 0 4 -7 -3 -15 -10 -12 -10 -15 1 -15 11 0 11 -2 -1
-10 -13 -9 -13 -10 0 -10 9 0 11 -3 5 -8 -5 -4 -10 -14 -10 -22 0 -8 5 -18 10
-22 7 -5 7 -8 0 -8 -13 0 -13 -80 0 -80 7 0 7 -3 0 -8 -14 -10 -14 -245 0
-254 5 -4 -2 -8 -17 -8 -26 0 -27 2 -30 58 l-3 57 -42 3 c-24 2 -43 7 -43 13
0 5 6 9 13 9 8 0 7 4 -3 10 -11 7 -7 10 17 10 17 0 35 5 38 10 4 6 -20 10 -64
10 -55 0 -71 3 -71 14 0 11 -14 16 -47 18 -41 3 -48 6 -51 25 -2 13 -10 23
-18 23 -8 0 -14 5 -14 10 0 6 -53 10 -140 10 -155 0 -140 7 -144 -65 -1 -17
-9 -21 -48 -23 -40 -3 -48 -6 -48 -23 0 -10 -4 -19 -10 -19 -5 0 -10 -22 -10
-50 l0 -50 -50 0 -50 0 -2 272 -3 273 -27 3 c-24 3 -28 8 -29 35 l-1 32 -9
-31 c-8 -30 -39 -56 -39 -34 0 6 -16 10 -35 10 -31 0 -35 3 -35 25 0 42 -28
31 -32 -12 l-3 -37 -47 3 -48 3 0 -241 c0 -154 -4 -241 -10 -241 -5 0 -10 5
-10 10 0 14 -20 13 -53 -2 -21 -10 -27 -20 -27 -45 0 -36 -16 -48 -69 -52
l-33 -1 7 195 c5 128 4 195 -3 195 -5 0 -9 17 -9 38 0 115 -1 120 -33 134 -16
7 -30 16 -30 20 0 5 -7 8 -15 8 -9 0 -18 7 -21 15 -9 22 -154 22 -154 0 0 -9
-9 -15 -25 -15 -24 0 -25 -2 -25 -65 0 -63 -1 -65 -25 -65 -16 0 -25 6 -25 15
0 12 -13 15 -60 15 -40 0 -60 -4 -60 -12 0 -9 -3 -9 -12 0 -18 18 -88 16 -88
-3 0 -12 -16 -15 -85 -15 l-85 0 0 -170 c0 -163 -1 -170 -20 -170 -18 0 -20 7
-20 60 0 41 -4 60 -12 61 -7 1 -20 2 -28 3 -8 2 -27 3 -41 4 -17 1 -29 9 -32
22 -4 16 -13 20 -44 20 -43 0 -57 -7 -66 -33 -8 -21 -47 -23 -47 -2 0 8 -4 15
-10 15 -5 0 -10 -7 -10 -15 0 -8 -4 -15 -10 -15 -5 0 -10 6 -10 13 0 8 -18 13
-55 13 -51 1 -55 -1 -55 -22 0 -13 -5 -24 -11 -24 -7 0 -9 10 -5 25 6 23 3 25
-24 25 -25 0 -30 -4 -30 -25 0 -20 -5 -25 -25 -25 -23 0 -30 10 -25 35 4 20 2
111 -3 155 -3 25 -11 100 -18 167 l-12 122 -28 -14 c-33 -18 -93 -10 -85 11 4
11 -6 14 -47 12 -50 -1 -50 -2 -9 -5 75 -7 45 -23 -43 -23 l-85 0 0 -205 0
-205 -74 0 -74 0 -34 63 c-36 64 -64 81 -94 56 -8 -6 -16 -10 -17 -8 -1 2 -9
16 -16 31 -18 34 -34 38 -93 18 -32 -10 -48 -21 -48 -32 0 -20 -29 -38 -59
-38 -12 0 -21 -4 -21 -8 0 -23 34 -74 61 -89 22 -13 29 -25 29 -49 0 -27 -4
-32 -31 -38 -17 -3 -62 -6 -100 -6 -55 0 -69 -3 -69 -15 0 -8 -5 -15 -11 -15
-8 0 -10 55 -8 193 l4 192 -77 5 c-42 3 -80 8 -84 13 -4 4 -3 7 2 7 6 0 10 20
10 45 0 50 -1 51 -22 30 -9 -8 -11 -15 -5 -15 6 0 11 -11 11 -25 0 -24 -3 -25
-67 -27 l-68 -1 55 -6 c84 -9 34 -19 -107 -20 l-123 -2 0 51 0 50 -122 2 c-68
1 -178 2 -245 3 l-123 0 0 -61 c0 -61 0 -62 -31 -68 -17 -3 -35 -6 -40 -6 -5
0 -9 148 -9 330 l0 330 -101 0 c-96 0 -101 1 -96 20 3 13 0 20 -9 20 -8 0 -13
-3 -13 -7z"/>
<path d="M5151 900 c-6 -72 -6 -150 0 -150 11 0 14 60 8 125 -4 44 -6 51 -8
25z"/>
</g>
</svg>
